<svg width="286" height="362" viewBox="0 0 286 362" fill="none" xmlns="http://www.w3.org/2000/svg">
    <path d="M83.8352 163.016L55.6966 156L49.1647 182.198L77.3033 189.214L83.8352 163.016Z" fill="#536678"/>
    <path d="M20.0728 231.08L7.45898 227.935L0.927093 254.133L13.5409 257.278L20.0728 231.08Z" fill="#A6C4E0"/>
    <path d="M97.4592 32.9646L77.5406 44.4646L89.5406 65.2492L109.459 53.7492L97.4592 32.9646Z" fill="#2CC92C"/>
    <path d="M113.159 335.627L85.2828 327.633L77.8406 353.587L105.717 361.581L113.159 335.627Z" fill="#52464E"/>
    <path d="M245.235 144.231L231.237 143.987L230.765 170.983L244.763 171.227L245.235 144.231Z" fill="#B1B13E"/>
    <path d="M277.569 28.3218L285.994 17.1409L264.431 0.891863L256.006 12.0728L277.569 28.3218Z" fill="#9A6F8F"/>
</svg>
