<svg width="231" height="392" viewBox="0 0 231 392" fill="none" xmlns="http://www.w3.org/2000/svg">
    <path d="M139.835 7.01574L111.697 0L105.165 26.198L133.303 33.2137L139.835 7.01574Z" fill="#295176"/>
    <path d="M56.2338 132.318L27.2382 131.812L26.9764 146.81L55.972 147.316L56.2338 132.318Z" fill="#76295A"/>
    <path d="M105.233 260.362L76.2378 259.856L75.7666 286.852L104.762 287.358L105.233 260.362Z" fill="#357629"/>
    <path d="M15.2345 364.231L1.23663 363.987L0.765418 390.983L14.7633 391.227L15.2345 364.231Z" fill="#B1B13E"/>
    <path d="M194.941 88.0373L166.685 94.5609L170.059 109.176L198.316 102.653L194.941 88.0373Z" fill="#B6D1E9"/>
    <path d="M230.754 258.085L203.865 247.221L198.246 261.129L225.135 271.993L230.754 258.085Z" fill="#B6E9C7"/>
</svg>
