<svg width="414" height="65" viewBox="0 0 414 65" fill="none" xmlns="http://www.w3.org/2000/svg">
    <path fill-rule="evenodd" clip-rule="evenodd" d="M0 12.679H83.3638V64.6303H0L23.5719 38.6546L0 12.679Z" fill="#ED973E"/>
    <path fill-rule="evenodd" clip-rule="evenodd" d="M414 64.6304H330.636V12.679H414L390.428 38.6547L414 64.6304Z" fill="#ED973E"/>
    <path d="M366.076 1H48.3268V52.9514H366.076V1Z" fill="#ED973E" stroke="#A15A0D" stroke-width="0.5"/>
    <path d="M152.078 15.9674C152.359 15.9674 152.576 16.0201 152.728 16.1256C152.881 16.2194 152.992 16.3951 153.062 16.653C153.144 16.9108 153.185 17.2858 153.185 17.778C153.185 18.2701 153.144 18.6451 153.062 18.903C152.992 19.1608 152.881 19.3365 152.728 19.4303C152.576 19.524 152.359 19.5709 152.078 19.5709H151.094L149.318 36.0768C149.283 36.3698 149.201 36.5983 149.072 36.7623C148.943 36.9264 148.732 37.0436 148.439 37.1139C148.146 37.1842 147.73 37.2194 147.191 37.2194C146.418 37.2194 145.855 37.1315 145.504 36.9557C145.164 36.7799 144.924 36.4869 144.783 36.0768L141.971 27.7975L139.123 36.0768C138.982 36.4869 138.736 36.7799 138.385 36.9557C138.033 37.1315 137.465 37.2194 136.68 37.2194C136.14 37.2194 135.724 37.1842 135.431 37.1139C135.15 37.0436 134.945 36.9264 134.816 36.7623C134.699 36.5983 134.623 36.3698 134.588 36.0768L132.883 19.5709H132.004C131.722 19.5709 131.506 19.524 131.353 19.4303C131.201 19.3365 131.09 19.1608 131.019 18.903C130.937 18.6451 130.896 18.2701 130.896 17.778C130.896 17.2858 130.937 16.9108 131.019 16.653C131.09 16.3951 131.201 16.2194 131.353 16.1256C131.506 16.0201 131.722 15.9674 132.004 15.9674H138.93C139.211 15.9674 139.428 16.0201 139.58 16.1256C139.732 16.2194 139.844 16.3951 139.914 16.653C139.996 16.9108 140.037 17.2858 140.037 17.778C140.037 18.2701 139.996 18.6451 139.914 18.903C139.844 19.1608 139.732 19.3365 139.58 19.4303C139.428 19.524 139.211 19.5709 138.93 19.5709H136.873L137.805 29.8365L140.371 22.3131C140.453 22.0436 140.611 21.8385 140.846 21.6979C141.08 21.5573 141.472 21.4869 142.023 21.4869C142.609 21.4869 143.031 21.5455 143.289 21.6627C143.547 21.7682 143.711 21.944 143.781 22.1901L146.365 29.8365L147.314 19.5709H145.504C145.222 19.5709 145.006 19.524 144.853 19.4303C144.701 19.3365 144.584 19.1608 144.502 18.903C144.431 18.6451 144.396 18.2701 144.396 17.778C144.396 17.2858 144.431 16.9108 144.502 16.653C144.584 16.3951 144.701 16.2194 144.853 16.1256C145.006 16.0201 145.222 15.9674 145.504 15.9674H152.078ZM169.972 15.9674C170.254 15.9674 170.471 16.0201 170.623 16.1256C170.775 16.2194 170.887 16.3951 170.957 16.653C171.039 16.9108 171.08 17.2858 171.08 17.778C171.08 18.2701 171.039 18.6451 170.957 18.903C170.887 19.1608 170.775 19.3365 170.623 19.4303C170.471 19.524 170.254 19.5709 169.972 19.5709H165.824V33.2291H170.324C170.605 33.2291 170.822 33.2819 170.974 33.3873C171.127 33.4811 171.238 33.6569 171.308 33.9147C171.39 34.1725 171.431 34.5475 171.431 35.0397C171.431 35.5319 171.39 35.9069 171.308 36.1647C171.238 36.4225 171.127 36.5983 170.974 36.692C170.822 36.7858 170.605 36.8326 170.324 36.8326H156.93C156.648 36.8326 156.431 36.7858 156.279 36.692C156.127 36.5983 156.01 36.4225 155.928 36.1647C155.857 35.9069 155.822 35.5319 155.822 35.0397C155.822 34.5475 155.857 34.1725 155.928 33.9147C156.01 33.6569 156.127 33.4811 156.279 33.3873C156.431 33.2819 156.648 33.2291 156.93 33.2291H161.43V19.5709H157.281C157 19.5709 156.783 19.524 156.631 19.4303C156.478 19.3365 156.361 19.1608 156.279 18.903C156.209 18.6451 156.174 18.2701 156.174 17.778C156.174 17.2858 156.209 16.9108 156.279 16.653C156.361 16.3951 156.478 16.2194 156.631 16.1256C156.783 16.0201 157 15.9674 157.281 15.9674H169.972ZM194.371 15.9674C194.652 15.9674 194.869 16.0201 195.021 16.1256C195.174 16.2194 195.285 16.3951 195.355 16.653C195.437 16.9108 195.478 17.2858 195.478 17.778C195.478 18.2701 195.437 18.6451 195.355 18.903C195.285 19.1608 195.174 19.3365 195.021 19.4303C194.869 19.524 194.652 19.5709 194.371 19.5709H193.369V36.0592C193.369 36.4459 193.222 36.733 192.93 36.9205C192.637 37.1198 192.139 37.2194 191.435 37.2194C190.896 37.2194 190.492 37.1432 190.222 36.9908C189.965 36.8502 189.736 36.6158 189.537 36.2877L181.627 23.192H181.556V33.2291H183.508C183.789 33.2291 184.006 33.2819 184.158 33.3873C184.31 33.4811 184.422 33.6569 184.492 33.9147C184.574 34.1725 184.615 34.5475 184.615 35.0397C184.615 35.5319 184.574 35.9069 184.492 36.1647C184.422 36.4225 184.31 36.5983 184.158 36.692C184.006 36.7858 183.789 36.8326 183.508 36.8326H176.406C176.125 36.8326 175.908 36.7858 175.756 36.692C175.603 36.5983 175.486 36.4225 175.404 36.1647C175.334 35.9069 175.299 35.5319 175.299 35.0397C175.299 34.5475 175.334 34.1725 175.404 33.9147C175.486 33.6569 175.603 33.4811 175.756 33.3873C175.908 33.2819 176.125 33.2291 176.406 33.2291H177.584V19.5709H176.406C176.125 19.5709 175.908 19.524 175.756 19.4303C175.603 19.3365 175.486 19.1608 175.404 18.903C175.334 18.6451 175.299 18.2701 175.299 17.778C175.299 17.2858 175.334 16.9108 175.404 16.653C175.486 16.3951 175.603 16.2194 175.756 16.1256C175.908 16.0201 176.125 15.9674 176.406 15.9674H181.047C181.515 15.9674 181.844 16.1256 182.031 16.442L189.326 28.5182H189.396V19.5709H187.779C187.498 19.5709 187.281 19.524 187.129 19.4303C186.976 19.3365 186.859 19.1608 186.777 18.903C186.707 18.6451 186.672 18.2701 186.672 17.778C186.672 17.2858 186.707 16.9108 186.777 16.653C186.859 16.3951 186.976 16.2194 187.129 16.1256C187.281 16.0201 187.498 15.9674 187.779 15.9674H194.371ZM215.957 15.9674C216.238 15.9674 216.455 16.0201 216.607 16.1256C216.76 16.2194 216.871 16.3951 216.941 16.653C217.023 16.9108 217.064 17.2858 217.064 17.778C217.064 18.2701 217.023 18.6451 216.941 18.903C216.871 19.1608 216.76 19.3365 216.607 19.4303C216.455 19.524 216.238 19.5709 215.957 19.5709H214.955V36.0592C214.955 36.4459 214.808 36.733 214.515 36.9205C214.222 37.1198 213.724 37.2194 213.021 37.2194C212.482 37.2194 212.078 37.1432 211.808 36.9908C211.551 36.8502 211.322 36.6158 211.123 36.2877L203.213 23.192H203.142V33.2291H205.094C205.375 33.2291 205.592 33.2819 205.744 33.3873C205.896 33.4811 206.008 33.6569 206.078 33.9147C206.16 34.1725 206.201 34.5475 206.201 35.0397C206.201 35.5319 206.16 35.9069 206.078 36.1647C206.008 36.4225 205.896 36.5983 205.744 36.692C205.592 36.7858 205.375 36.8326 205.094 36.8326H197.992C197.711 36.8326 197.494 36.7858 197.342 36.692C197.189 36.5983 197.072 36.4225 196.99 36.1647C196.92 35.9069 196.885 35.5319 196.885 35.0397C196.885 34.5475 196.92 34.1725 196.99 33.9147C197.072 33.6569 197.189 33.4811 197.342 33.3873C197.494 33.2819 197.711 33.2291 197.992 33.2291H199.17V19.5709H197.992C197.711 19.5709 197.494 19.524 197.342 19.4303C197.189 19.3365 197.072 19.1608 196.99 18.903C196.92 18.6451 196.885 18.2701 196.885 17.778C196.885 17.2858 196.92 16.9108 196.99 16.653C197.072 16.3951 197.189 16.2194 197.342 16.1256C197.494 16.0201 197.711 15.9674 197.992 15.9674H202.633C203.101 15.9674 203.43 16.1256 203.617 16.442L210.912 28.5182H210.982V19.5709H209.365C209.084 19.5709 208.867 19.524 208.715 19.4303C208.562 19.3365 208.445 19.1608 208.363 18.903C208.293 18.6451 208.258 18.2701 208.258 17.778C208.258 17.2858 208.293 16.9108 208.363 16.653C208.445 16.3951 208.562 16.2194 208.715 16.1256C208.867 16.0201 209.084 15.9674 209.365 15.9674H215.957ZM235.785 15.9674C236.195 15.9674 236.488 16.0553 236.664 16.2311C236.84 16.4069 236.928 16.6998 236.928 17.11V22.4186C236.928 22.817 236.758 23.1041 236.418 23.2799C236.078 23.444 235.533 23.526 234.783 23.526C234.056 23.526 233.558 23.444 233.289 23.2799C233.019 23.1158 232.885 22.8287 232.885 22.4186V19.7467H225.853V24.194H230.142C230.553 24.194 230.84 24.3287 231.004 24.5983C231.168 24.8678 231.25 25.3658 231.25 26.0924C231.25 26.819 231.168 27.317 231.004 27.5865C230.84 27.8444 230.553 27.9733 230.142 27.9733H225.853V33.0533H233.06V29.5026C233.06 29.1041 233.23 28.8229 233.57 28.6588C233.922 28.483 234.49 28.3951 235.275 28.3951C236.049 28.3951 236.576 28.4772 236.857 28.6412C237.139 28.8053 237.279 29.0924 237.279 29.5026V35.6901C237.279 36.0885 237.191 36.3815 237.015 36.569C236.84 36.7448 236.547 36.8326 236.137 36.8326H219.754C219.472 36.8326 219.256 36.7858 219.103 36.692C218.951 36.5983 218.834 36.4225 218.752 36.1647C218.681 35.9069 218.646 35.5319 218.646 35.0397C218.646 34.5475 218.681 34.1725 218.752 33.9147C218.834 33.6569 218.951 33.4811 219.103 33.3873C219.256 33.2819 219.472 33.2291 219.754 33.2291H221.459V19.5709H219.754C219.472 19.5709 219.256 19.524 219.103 19.4303C218.951 19.3365 218.834 19.1608 218.752 18.903C218.681 18.6451 218.646 18.2701 218.646 17.778C218.646 17.2858 218.681 16.9108 218.752 16.653C218.834 16.3951 218.951 16.2194 219.103 16.1256C219.256 16.0201 219.472 15.9674 219.754 15.9674H235.785ZM250.603 15.9674C253.076 15.9674 254.974 16.5123 256.299 17.6022C257.623 18.692 258.285 20.274 258.285 22.3483C258.285 25.0553 256.832 26.7604 253.926 27.4635C254.558 27.7096 255.062 28.0729 255.437 28.5533C255.683 28.8698 255.906 29.2037 256.105 29.5553C256.316 29.8951 256.556 30.3287 256.826 30.8561C257.107 31.4186 257.324 31.8229 257.476 32.069C257.711 32.4557 257.945 32.7487 258.18 32.9479C258.414 33.1354 258.678 33.2291 258.971 33.2291H259.305C259.586 33.2291 259.803 33.2819 259.955 33.3873C260.107 33.4811 260.219 33.6569 260.289 33.9147C260.371 34.1725 260.412 34.5475 260.412 35.0397C260.412 35.5319 260.371 35.9069 260.289 36.1647C260.219 36.4225 260.107 36.5983 259.955 36.692C259.803 36.7858 259.586 36.8326 259.305 36.8326H257.599C256.674 36.8326 255.924 36.6451 255.349 36.2701C254.775 35.8951 254.248 35.2682 253.767 34.3893C253.533 33.9791 253.252 33.4166 252.924 32.7018C252.689 32.1627 252.467 31.6998 252.256 31.3131C252.045 30.9147 251.81 30.528 251.553 30.153C251.189 29.649 250.785 29.2858 250.34 29.0631C249.894 28.8405 249.361 28.7291 248.74 28.7291H247.615V33.2291H249.32C249.601 33.2291 249.818 33.2819 249.971 33.3873C250.123 33.4811 250.234 33.6569 250.305 33.9147C250.387 34.1725 250.428 34.5475 250.428 35.0397C250.428 35.5319 250.387 35.9069 250.305 36.1647C250.234 36.4225 250.123 36.5983 249.971 36.692C249.818 36.7858 249.601 36.8326 249.32 36.8326H241.34C241.058 36.8326 240.842 36.7858 240.689 36.692C240.537 36.5983 240.42 36.4225 240.338 36.1647C240.267 35.9069 240.232 35.5319 240.232 35.0397C240.232 34.5475 240.267 34.1725 240.338 33.9147C240.42 33.6569 240.537 33.4811 240.689 33.3873C240.842 33.2819 241.058 33.2291 241.34 33.2291H243.221V19.5709H241.34C241.058 19.5709 240.842 19.524 240.689 19.4303C240.537 19.3365 240.42 19.1608 240.338 18.903C240.267 18.6451 240.232 18.2701 240.232 17.778C240.232 17.2858 240.267 16.9108 240.338 16.653C240.42 16.3951 240.537 16.2194 240.689 16.1256C240.842 16.0201 241.058 15.9674 241.34 15.9674H250.603ZM247.615 24.9498H250.234C251.43 24.9498 252.314 24.7389 252.889 24.317C253.463 23.8834 253.75 23.2272 253.75 22.3483C253.75 21.4694 253.463 20.819 252.889 20.3971C252.314 19.9635 251.43 19.7467 250.234 19.7467H247.615V24.9498ZM273.578 14.526C273.847 14.526 274.041 14.5963 274.158 14.7369C274.275 14.8776 274.322 15.1002 274.299 15.4049L273.297 26.9537C273.238 27.6334 272.658 27.9733 271.556 27.9733C270.455 27.9733 269.875 27.6334 269.816 26.9537L268.814 15.4049C268.791 15.1002 268.838 14.8776 268.955 14.7369C269.072 14.5963 269.265 14.526 269.535 14.526H273.578ZM271.556 31.0319C272.517 31.0319 273.209 31.1198 273.631 31.2955C274.064 31.4596 274.281 31.7408 274.281 32.1393V35.901C274.281 36.2994 274.064 36.5865 273.631 36.7623C273.209 36.9264 272.517 37.0084 271.556 37.0084C270.596 37.0084 269.898 36.9264 269.465 36.7623C269.043 36.5865 268.832 36.2994 268.832 35.901V32.1393C268.832 31.7408 269.043 31.4596 269.465 31.2955C269.898 31.1198 270.596 31.0319 271.556 31.0319Z" fill="white"/>
</svg>
