<svg width="1028" height="159" viewBox="0 0 1028 159" fill="none" xmlns="http://www.w3.org/2000/svg">
    <path fill-rule="evenodd" clip-rule="evenodd" d="M0 30H207V159H0L58.5312 94.5L0 30Z" fill="#ED973E"/>
    <path fill-rule="evenodd" clip-rule="evenodd" d="M127 30H207V159L127 130.5V30Z" fill="#A15A0D"/>
    <path fill-rule="evenodd" clip-rule="evenodd" d="M1028 159H821V30H1028L969.469 94.5L1028 159Z" fill="#ED973E"/>
    <path fill-rule="evenodd" clip-rule="evenodd" d="M901 30H821V159L901 130.5V30Z" fill="#A15A0D"/>
    <path d="M909 1H120V130H909V1Z" fill="#ED973E" stroke="#A15A0D" stroke-width="0.5"/>
    <path d="M355.418 33.7227C356.23 33.7227 356.857 33.875 357.297 34.1797C357.737 34.4505 358.059 34.9583 358.262 35.7031C358.499 36.4479 358.617 37.5312 358.617 38.9531C358.617 40.375 358.499 41.4583 358.262 42.2031C358.059 42.9479 357.737 43.4557 357.297 43.7266C356.857 43.9974 356.23 44.1328 355.418 44.1328H352.574L347.445 91.8164C347.344 92.6628 347.107 93.3229 346.734 93.7969C346.362 94.2708 345.753 94.6094 344.906 94.8125C344.06 95.0156 342.858 95.1172 341.301 95.1172C339.066 95.1172 337.441 94.8633 336.426 94.3555C335.444 93.8477 334.75 93.0013 334.344 91.8164L326.219 67.8984L317.992 91.8164C317.586 93.0013 316.875 93.8477 315.859 94.3555C314.844 94.8633 313.202 95.1172 310.934 95.1172C309.376 95.1172 308.174 95.0156 307.328 94.8125C306.516 94.6094 305.923 94.2708 305.551 93.7969C305.212 93.3229 304.992 92.6628 304.891 91.8164L299.965 44.1328H297.426C296.613 44.1328 295.987 43.9974 295.547 43.7266C295.107 43.4557 294.785 42.9479 294.582 42.2031C294.345 41.4583 294.227 40.375 294.227 38.9531C294.227 37.5312 294.345 36.4479 294.582 35.7031C294.785 34.9583 295.107 34.4505 295.547 34.1797C295.987 33.875 296.613 33.7227 297.426 33.7227H317.434C318.246 33.7227 318.872 33.875 319.312 34.1797C319.753 34.4505 320.074 34.9583 320.277 35.7031C320.514 36.4479 320.633 37.5312 320.633 38.9531C320.633 40.375 320.514 41.4583 320.277 42.2031C320.074 42.9479 319.753 43.4557 319.312 43.7266C318.872 43.9974 318.246 44.1328 317.434 44.1328H311.492L314.184 73.7891L321.598 52.0547C321.835 51.276 322.292 50.6836 322.969 50.2773C323.646 49.8711 324.78 49.668 326.371 49.668C328.064 49.668 329.283 49.8372 330.027 50.1758C330.772 50.4805 331.246 50.9883 331.449 51.6992L338.914 73.7891L341.656 44.1328H336.426C335.613 44.1328 334.987 43.9974 334.547 43.7266C334.107 43.4557 333.768 42.9479 333.531 42.2031C333.328 41.4583 333.227 40.375 333.227 38.9531C333.227 37.5312 333.328 36.4479 333.531 35.7031C333.768 34.9583 334.107 34.4505 334.547 34.1797C334.987 33.875 335.613 33.7227 336.426 33.7227H355.418ZM407.113 33.7227C407.926 33.7227 408.552 33.875 408.992 34.1797C409.432 34.4505 409.754 34.9583 409.957 35.7031C410.194 36.4479 410.312 37.5312 410.312 38.9531C410.312 40.375 410.194 41.4583 409.957 42.2031C409.754 42.9479 409.432 43.4557 408.992 43.7266C408.552 43.9974 407.926 44.1328 407.113 44.1328H395.129V83.5898H408.129C408.941 83.5898 409.568 83.7422 410.008 84.0469C410.448 84.3177 410.77 84.8255 410.973 85.5703C411.21 86.3151 411.328 87.3984 411.328 88.8203C411.328 90.2422 411.21 91.3255 410.973 92.0703C410.77 92.8151 410.448 93.3229 410.008 93.5938C409.568 93.8646 408.941 94 408.129 94H369.434C368.621 94 367.995 93.8646 367.555 93.5938C367.115 93.3229 366.776 92.8151 366.539 92.0703C366.336 91.3255 366.234 90.2422 366.234 88.8203C366.234 87.3984 366.336 86.3151 366.539 85.5703C366.776 84.8255 367.115 84.3177 367.555 84.0469C367.995 83.7422 368.621 83.5898 369.434 83.5898H382.434V44.1328H370.449C369.637 44.1328 369.01 43.9974 368.57 43.7266C368.13 43.4557 367.792 42.9479 367.555 42.2031C367.352 41.4583 367.25 40.375 367.25 38.9531C367.25 37.5312 367.352 36.4479 367.555 35.7031C367.792 34.9583 368.13 34.4505 368.57 34.1797C369.01 33.875 369.637 33.7227 370.449 33.7227H407.113ZM477.598 33.7227C478.41 33.7227 479.036 33.875 479.477 34.1797C479.917 34.4505 480.238 34.9583 480.441 35.7031C480.678 36.4479 480.797 37.5312 480.797 38.9531C480.797 40.375 480.678 41.4583 480.441 42.2031C480.238 42.9479 479.917 43.4557 479.477 43.7266C479.036 43.9974 478.41 44.1328 477.598 44.1328H474.703V91.7656C474.703 92.8828 474.28 93.7122 473.434 94.2539C472.587 94.8294 471.148 95.1172 469.117 95.1172C467.56 95.1172 466.392 94.8971 465.613 94.457C464.868 94.0508 464.208 93.3737 463.633 92.4258L440.781 54.5938H440.578V83.5898H446.215C447.027 83.5898 447.654 83.7422 448.094 84.0469C448.534 84.3177 448.855 84.8255 449.059 85.5703C449.296 86.3151 449.414 87.3984 449.414 88.8203C449.414 90.2422 449.296 91.3255 449.059 92.0703C448.855 92.8151 448.534 93.3229 448.094 93.5938C447.654 93.8646 447.027 94 446.215 94H425.699C424.887 94 424.26 93.8646 423.82 93.5938C423.38 93.3229 423.042 92.8151 422.805 92.0703C422.602 91.3255 422.5 90.2422 422.5 88.8203C422.5 87.3984 422.602 86.3151 422.805 85.5703C423.042 84.8255 423.38 84.3177 423.82 84.0469C424.26 83.7422 424.887 83.5898 425.699 83.5898H429.102V44.1328H425.699C424.887 44.1328 424.26 43.9974 423.82 43.7266C423.38 43.4557 423.042 42.9479 422.805 42.2031C422.602 41.4583 422.5 40.375 422.5 38.9531C422.5 37.5312 422.602 36.4479 422.805 35.7031C423.042 34.9583 423.38 34.4505 423.82 34.1797C424.26 33.875 424.887 33.7227 425.699 33.7227H439.105C440.46 33.7227 441.408 34.1797 441.949 35.0938L463.023 69.9805H463.227V44.1328H458.555C457.742 44.1328 457.116 43.9974 456.676 43.7266C456.236 43.4557 455.897 42.9479 455.66 42.2031C455.457 41.4583 455.355 40.375 455.355 38.9531C455.355 37.5312 455.457 36.4479 455.66 35.7031C455.897 34.9583 456.236 34.4505 456.676 34.1797C457.116 33.875 457.742 33.7227 458.555 33.7227H477.598ZM539.957 33.7227C540.77 33.7227 541.396 33.875 541.836 34.1797C542.276 34.4505 542.598 34.9583 542.801 35.7031C543.038 36.4479 543.156 37.5312 543.156 38.9531C543.156 40.375 543.038 41.4583 542.801 42.2031C542.598 42.9479 542.276 43.4557 541.836 43.7266C541.396 43.9974 540.77 44.1328 539.957 44.1328H537.062V91.7656C537.062 92.8828 536.639 93.7122 535.793 94.2539C534.947 94.8294 533.508 95.1172 531.477 95.1172C529.919 95.1172 528.751 94.8971 527.973 94.457C527.228 94.0508 526.568 93.3737 525.992 92.4258L503.141 54.5938H502.938V83.5898H508.574C509.387 83.5898 510.013 83.7422 510.453 84.0469C510.893 84.3177 511.215 84.8255 511.418 85.5703C511.655 86.3151 511.773 87.3984 511.773 88.8203C511.773 90.2422 511.655 91.3255 511.418 92.0703C511.215 92.8151 510.893 93.3229 510.453 93.5938C510.013 93.8646 509.387 94 508.574 94H488.059C487.246 94 486.62 93.8646 486.18 93.5938C485.74 93.3229 485.401 92.8151 485.164 92.0703C484.961 91.3255 484.859 90.2422 484.859 88.8203C484.859 87.3984 484.961 86.3151 485.164 85.5703C485.401 84.8255 485.74 84.3177 486.18 84.0469C486.62 83.7422 487.246 83.5898 488.059 83.5898H491.461V44.1328H488.059C487.246 44.1328 486.62 43.9974 486.18 43.7266C485.74 43.4557 485.401 42.9479 485.164 42.2031C484.961 41.4583 484.859 40.375 484.859 38.9531C484.859 37.5312 484.961 36.4479 485.164 35.7031C485.401 34.9583 485.74 34.4505 486.18 34.1797C486.62 33.875 487.246 33.7227 488.059 33.7227H501.465C502.819 33.7227 503.767 34.1797 504.309 35.0938L525.383 69.9805H525.586V44.1328H520.914C520.102 44.1328 519.475 43.9974 519.035 43.7266C518.595 43.4557 518.257 42.9479 518.02 42.2031C517.816 41.4583 517.715 40.375 517.715 38.9531C517.715 37.5312 517.816 36.4479 518.02 35.7031C518.257 34.9583 518.595 34.4505 519.035 34.1797C519.475 33.875 520.102 33.7227 520.914 33.7227H539.957ZM597.238 33.7227C598.423 33.7227 599.27 33.9766 599.777 34.4844C600.285 34.9922 600.539 35.8385 600.539 37.0234V52.3594C600.539 53.5104 600.048 54.3398 599.066 54.8477C598.085 55.3216 596.51 55.5586 594.344 55.5586C592.245 55.5586 590.806 55.3216 590.027 54.8477C589.249 54.3737 588.859 53.5443 588.859 52.3594V44.6406H568.547V57.4883H580.938C582.122 57.4883 582.952 57.8776 583.426 58.6562C583.9 59.4349 584.137 60.8737 584.137 62.9727C584.137 65.0716 583.9 66.5104 583.426 67.2891C582.952 68.0339 582.122 68.4062 580.938 68.4062H568.547V83.082H589.367V72.8242C589.367 71.6732 589.858 70.8607 590.84 70.3867C591.855 69.8789 593.497 69.625 595.766 69.625C598 69.625 599.523 69.862 600.336 70.3359C601.148 70.8099 601.555 71.6393 601.555 72.8242V90.6992C601.555 91.8503 601.301 92.6966 600.793 93.2383C600.285 93.7461 599.439 94 598.254 94H550.926C550.113 94 549.487 93.8646 549.047 93.5938C548.607 93.3229 548.268 92.8151 548.031 92.0703C547.828 91.3255 547.727 90.2422 547.727 88.8203C547.727 87.3984 547.828 86.3151 548.031 85.5703C548.268 84.8255 548.607 84.3177 549.047 84.0469C549.487 83.7422 550.113 83.5898 550.926 83.5898H555.852V44.1328H550.926C550.113 44.1328 549.487 43.9974 549.047 43.7266C548.607 43.4557 548.268 42.9479 548.031 42.2031C547.828 41.4583 547.727 40.375 547.727 38.9531C547.727 37.5312 547.828 36.4479 548.031 35.7031C548.268 34.9583 548.607 34.4505 549.047 34.1797C549.487 33.875 550.113 33.7227 550.926 33.7227H597.238ZM640.047 33.7227C647.19 33.7227 652.674 35.2969 656.5 38.4453C660.326 41.5938 662.238 46.1641 662.238 52.1562C662.238 59.9766 658.04 64.9023 649.645 66.9336C651.473 67.6445 652.928 68.694 654.012 70.082C654.723 70.9961 655.366 71.9609 655.941 72.9766C656.551 73.9583 657.245 75.2109 658.023 76.7344C658.836 78.3594 659.462 79.5273 659.902 80.2383C660.579 81.3555 661.257 82.2018 661.934 82.7773C662.611 83.319 663.372 83.5898 664.219 83.5898H665.184C665.996 83.5898 666.622 83.7422 667.062 84.0469C667.503 84.3177 667.824 84.8255 668.027 85.5703C668.264 86.3151 668.383 87.3984 668.383 88.8203C668.383 90.2422 668.264 91.3255 668.027 92.0703C667.824 92.8151 667.503 93.3229 667.062 93.5938C666.622 93.8646 665.996 94 665.184 94H660.258C657.583 94 655.417 93.4583 653.758 92.375C652.099 91.2917 650.576 89.4805 649.188 86.9414C648.51 85.7565 647.698 84.1315 646.75 82.0664C646.073 80.5091 645.43 79.1719 644.82 78.0547C644.211 76.9036 643.534 75.7865 642.789 74.7031C641.74 73.2474 640.572 72.1979 639.285 71.5547C637.999 70.9115 636.458 70.5898 634.664 70.5898H631.414V83.5898H636.34C637.152 83.5898 637.779 83.7422 638.219 84.0469C638.659 84.3177 638.98 84.8255 639.184 85.5703C639.421 86.3151 639.539 87.3984 639.539 88.8203C639.539 90.2422 639.421 91.3255 639.184 92.0703C638.98 92.8151 638.659 93.3229 638.219 93.5938C637.779 93.8646 637.152 94 636.34 94H613.285C612.473 94 611.846 93.8646 611.406 93.5938C610.966 93.3229 610.628 92.8151 610.391 92.0703C610.188 91.3255 610.086 90.2422 610.086 88.8203C610.086 87.3984 610.188 86.3151 610.391 85.5703C610.628 84.8255 610.966 84.3177 611.406 84.0469C611.846 83.7422 612.473 83.5898 613.285 83.5898H618.719V44.1328H613.285C612.473 44.1328 611.846 43.9974 611.406 43.7266C610.966 43.4557 610.628 42.9479 610.391 42.2031C610.188 41.4583 610.086 40.375 610.086 38.9531C610.086 37.5312 610.188 36.4479 610.391 35.7031C610.628 34.9583 610.966 34.4505 611.406 34.1797C611.846 33.875 612.473 33.7227 613.285 33.7227H640.047ZM631.414 59.6719H638.98C642.434 59.6719 644.99 59.0625 646.648 57.8438C648.307 56.5911 649.137 54.6953 649.137 52.1562C649.137 49.6172 648.307 47.7383 646.648 46.5195C644.99 45.2669 642.434 44.6406 638.98 44.6406H631.414V59.6719ZM706.418 29.5586C707.197 29.5586 707.755 29.7617 708.094 30.168C708.432 30.5742 708.568 31.2174 708.5 32.0977L705.605 65.4609C705.436 67.4245 703.76 68.4062 700.578 68.4062C697.396 68.4062 695.72 67.4245 695.551 65.4609L692.656 32.0977C692.589 31.2174 692.724 30.5742 693.062 30.168C693.401 29.7617 693.96 29.5586 694.738 29.5586H706.418ZM700.578 77.2422C703.354 77.2422 705.352 77.4961 706.57 78.0039C707.823 78.4779 708.449 79.2904 708.449 80.4414V91.3086C708.449 92.4596 707.823 93.2891 706.57 93.7969C705.352 94.2708 703.354 94.5078 700.578 94.5078C697.802 94.5078 695.788 94.2708 694.535 93.7969C693.316 93.2891 692.707 92.4596 692.707 91.3086V80.4414C692.707 79.2904 693.316 78.4779 694.535 78.0039C695.788 77.4961 697.802 77.2422 700.578 77.2422Z" fill="white"/>
</svg>
