<svg width="90" height="89" viewBox="0 0 90 90" fill="none" xmlns="http://www.w3.org/2000/svg">
    <path fill-rule="evenodd" clip-rule="evenodd" d="M45 0C58.4888 7.2834 67.9223 13.5899 73.3006 18.9196C82.3812 27.9181 90 38.891 90 52.2116C90 64.566 85.3168 72.1093 73.3006 73.5699C65.6112 74.5046 56.622 69.9015 46.3332 59.7604C46.3298 60.1274 46.3283 60.499 46.3283 60.8743C46.3283 68.0953 46.8837 77.1418 47.9943 88.0139H41.4497C42.5007 75.4188 43.0262 66.3722 43.0262 60.8743L43.0252 60.7296C34.3203 70.1942 26.061 74.4743 18.2475 73.5699C5.62815 72.1093 0 64.9471 0 52.2116C0 38.7187 8.89409 27.9779 18.2475 18.9196C23.637 13.7002 32.5545 7.39368 45 0Z" fill="black"/>
</svg>
