<svg width="91" height="90" viewBox="0 0 90 90" fill="none" xmlns="http://www.w3.org/2000/svg">
    <path fill-rule="evenodd" clip-rule="evenodd" d="M45.4298 -1.52588e-05C57.8562 -1.52588e-05 67.9298 9.5434 67.9298 21.3158C67.9298 24.2836 67.2896 27.1097 66.1329 29.677C66.7254 29.6291 67.3248 29.6053 67.9298 29.6053C80.3562 29.6053 90.4298 39.6788 90.4298 52.1053C90.4298 64.5317 80.3562 74.6053 67.9298 74.6053C58.5879 74.6053 50.5756 68.9119 47.1737 60.8056L47.1738 60.5358C47.1738 68.3753 47.7767 78.1967 48.9825 90H41.8772C42.9871 76.6996 43.5572 67.0442 43.5875 61.0336C40.1327 69.0188 32.1837 74.6053 22.9298 74.6053C10.5034 74.6053 0.42984 64.5317 0.42984 52.1053C0.42984 39.6788 10.5034 29.6053 22.9298 29.6053C23.5349 29.6053 24.1343 29.6291 24.7273 29.676C23.5701 27.1097 22.9298 24.2836 22.9298 21.3158C22.9298 9.5434 33.0034 -1.52588e-05 45.4298 -1.52588e-05Z" fill="black"/>
</svg>
